<svg xmlns="http://www.w3.org/2000/svg" viewBox="0 0 647.49 880.34"><defs><style>.a{fill:#00a1c0;}</style></defs><path class="a" d="M619,382.47c-2.3-24.52-28.34-30.64-28.34-30.64H437.51V734l15.32,10s-5.62-109.79,1.53-167S497,491,504.14,485.1,619,425.36,619,425.36A218.25,218.25,0,0,0,619,382.47Z" transform="translate(-208.23 -99.83)"/><path class="a" d="M559.29,518c-33,17.83-30.53,24.51-30.51,61.28s1.15,106,0,143.23,45.07,40.6,45.07,40.6,49-2.56,49-33.54-2.81-244.42-2.81-244.42Z" transform="translate(-208.23 -99.83)"/><path class="a" d="M761.77,99.83H208.23v768c0,104.68,96,112.34,96,112.34H563.64C823,980.17,855.72,744,855.72,675.83v-478C855.72,124.34,761.77,99.83,761.77,99.83ZM586.1,844.34c-93.27,2-137.53,0-150.13,0s-71.29-10.56-71.48-85.79-1-404.43-1-404.43a668.84,668.84,0,0,1-75.57,2.05c-41-1.28-42.81-35.34-40.85-73.53H363.46V142.72s14.3-2.38,27.58,0S435,173,435,193.78v88.86s95.66-4.09,170.56,0S691,349,692.31,362.3s5.11,348.25,5.11,387.06S679.38,842.3,586.1,844.34Z" transform="translate(-208.23 -99.83)"/></svg>