<svg xmlns="http://www.w3.org/2000/svg" viewBox="0 0 1010.68 801.64"><defs><style>.a{fill:#00a1c0;}</style></defs><path class="a" d="M597.15,211.93c-1.27-13.46-15.56-16.82-15.56-16.82H497.5V404.9l8.41,5.47s-3.08-60.26.84-91.66,23.41-47.22,27.33-50.45,63.07-32.79,63.07-32.79A120,120,0,0,0,597.15,211.93Z" transform="translate(-32.89 -56.79)"/><path class="a" d="M564.35,286.34c-18.1,9.79-16.76,13.45-16.75,33.64s.63,58.2,0,78.62,24.74,22.28,24.74,22.28,26.91-1.4,26.91-18.41-1.54-134.16-1.54-134.16Z" transform="translate(-32.89 -56.79)"/><path class="a" d="M675.48,56.79H371.65V478.34c0,57.46,52.7,61.66,52.7,61.66H566.73c142.39,0,160.33-129.63,160.33-167V110.6C727.06,70.24,675.48,56.79,675.48,56.79ZM579.07,465.45c-51.2,1.11-75.49,0-82.41,0s-39.13-5.8-39.24-47.09-.56-222-.56-222a367.15,367.15,0,0,1-41.48,1.12c-22.49-.7-23.5-19.4-22.42-40.36h63.9V80.33a51,51,0,0,1,15.14,0c7.28,1.31,24.1,16.63,24.1,28v48.77s52.51-2.24,93.62,0,46.9,36.44,47.64,43.73,2.81,191.15,2.81,212.45S630.27,464.33,579.07,465.45Z" transform="translate(-32.89 -56.79)"/><path class="a" d="M32.89,585.1v-9.27h47v9.27H62.77v56.16H50V585.1Z" transform="translate(-32.89 -56.79)"/><path class="a" d="M111.82,641.26H98.68L82.3,594.73H95.53l9.36,32.94.63,2.7.63-2.7L112.81,610a30.36,30.36,0,0,1,2,4.77,35.58,35.58,0,0,1,1.44,6,29.17,29.17,0,0,1,.27,6.48,19.92,19.92,0,0,1-1.4,6.17Zm16.74,0-16.47-46.53h13.32l9.36,32.94.63,2.7.63-2.7,9.27-32.94h13L142,641.26Z" transform="translate(-32.89 -56.79)"/><path class="a" d="M164.2,581.23a7.47,7.47,0,0,1,2.12-5.36,7.4,7.4,0,0,1,10.53,0,7.46,7.46,0,0,1,2.11,5.36,7.38,7.38,0,1,1-14.76,0Zm1.08,60V594.73h12.6v46.53Z" transform="translate(-32.89 -56.79)"/><path class="a" d="M198,594.73a13.05,13.05,0,0,1,2.88,4.81,17.54,17.54,0,0,1,.72,5.09v36.63H189V606.07a49.73,49.73,0,0,0-1.44-11.34ZM218,608.23a6.86,6.86,0,0,0-.9-3.69,3.51,3.51,0,0,0-3.24-1.44,6.36,6.36,0,0,0-1.71.22,10.77,10.77,0,0,1-2.07.32,3.23,3.23,0,0,1-2-.45,7.23,7.23,0,0,1-1.66-1.4,14,14,0,0,1-1.44-1.93c-.45-.72-.89-1.44-1.31-2.16a40.39,40.39,0,0,1,7.83-3.24,24.79,24.79,0,0,1,6.48-.9,12.46,12.46,0,0,1,4.63.9,11.63,11.63,0,0,1,4,2.7,13.44,13.44,0,0,1,2.85,4.5,17,17,0,0,1,1.09,6.39v33.21H218Z" transform="translate(-32.89 -56.79)"/><path class="a" d="M267.52,641.26H254.38L238,594.73h13.23l9.36,32.94.63,2.7.63-2.7L268.51,610a30.36,30.36,0,0,1,2,4.77,35.58,35.58,0,0,1,1.44,6,29.17,29.17,0,0,1,.27,6.48,19.92,19.92,0,0,1-1.4,6.17Zm16.74,0-16.47-46.53h13.32l9.36,32.94.63,2.7.63-2.7L301,594.73h13.05l-16.38,46.53Z" transform="translate(-32.89 -56.79)"/><path class="a" d="M366,618a24.13,24.13,0,0,1-2.11,10.3,24.58,24.58,0,0,1-5.49,7.7,23.5,23.5,0,0,1-7.74,4.81,24.49,24.49,0,0,1-8.78,1.67,26,26,0,0,1-9.13-1.62,22.82,22.82,0,0,1-7.7-4.73,22.57,22.57,0,0,1-5.31-7.69,26.13,26.13,0,0,1-2-10.44A24.4,24.4,0,0,1,320,607a23.07,23.07,0,0,1,5.85-7.6,24.15,24.15,0,0,1,7.83-4.41,25.72,25.72,0,0,1,17.95.36,22.23,22.23,0,0,1,12.56,12.73A26.7,26.7,0,0,1,366,618Zm-24.12,15.21A8.94,8.94,0,0,0,346.5,632a10.41,10.41,0,0,0,3.37-3.27,15.32,15.32,0,0,0,2-4.83,24.92,24.92,0,0,0,.67-5.9,24.34,24.34,0,0,0-.67-5.86,15.39,15.39,0,0,0-2-4.79A10.41,10.41,0,0,0,346.5,604a9.55,9.55,0,0,0-9.27,0,10.44,10.44,0,0,0-3.38,3.27,16.18,16.18,0,0,0-2.07,4.79,22.89,22.89,0,0,0-.72,5.86,23.21,23.21,0,0,0,.77,6.17,15.73,15.73,0,0,0,2.16,4.79,10.1,10.1,0,0,0,3.42,3.13A9.1,9.1,0,0,0,341.86,633.16Z" transform="translate(-32.89 -56.79)"/><path class="a" d="M420.88,618a24.28,24.28,0,0,1-2.11,10.3,24.76,24.76,0,0,1-5.5,7.7,23.56,23.56,0,0,1-7.73,4.81,24.53,24.53,0,0,1-8.78,1.67,26.07,26.07,0,0,1-9.14-1.62,22.29,22.29,0,0,1-13-12.42,26.13,26.13,0,0,1-2-10.44,24.4,24.4,0,0,1,2.3-10.94,22.81,22.81,0,0,1,5.85-7.6,24,24,0,0,1,7.83-4.41,25.44,25.44,0,0,1,8.14-1.44,25.74,25.74,0,0,1,9.81,1.8,22.18,22.18,0,0,1,12.55,12.73A26.7,26.7,0,0,1,420.88,618Zm-24.12,15.21A9,9,0,0,0,401.4,632a10.41,10.41,0,0,0,3.37-3.27,15.08,15.08,0,0,0,2-4.83,24.41,24.41,0,0,0,.68-5.9,23.84,23.84,0,0,0-.68-5.86,15.14,15.14,0,0,0-2-4.79A10.41,10.41,0,0,0,401.4,604a9.57,9.57,0,0,0-9.28,0,10.41,10.41,0,0,0-3.37,3.27,16.18,16.18,0,0,0-2.07,4.79,24.66,24.66,0,0,0,.05,12,15.26,15.26,0,0,0,2.16,4.79,10,10,0,0,0,3.42,3.13A9.1,9.1,0,0,0,396.76,633.16Z" transform="translate(-32.89 -56.79)"/><path class="a" d="M448,642.43a20,20,0,0,1-8.73-1.85,17.89,17.89,0,0,1-6.48-5.17,24.11,24.11,0,0,1-4-7.88,33.41,33.41,0,0,1-1.39-9.85,25.67,25.67,0,0,1,1.62-9.09,25.33,25.33,0,0,1,4.36-7.56,21.83,21.83,0,0,1,6.35-5.18,15.57,15.57,0,0,1,7.47-1.93,32,32,0,0,1,4.54.31,46.32,46.32,0,0,1,5.72,1.31,18.7,18.7,0,0,1-2.88,5.08,5.51,5.51,0,0,1-3.87,2.12,10,10,0,0,0-4.68,1.35,9.17,9.17,0,0,0-3.06,3.1,14.36,14.36,0,0,0-1.71,4.64,29.84,29.84,0,0,0-.54,5.85,26.92,26.92,0,0,0,.63,5.94,17.52,17.52,0,0,0,1.84,4.9,10.33,10.33,0,0,0,3,3.38,6.9,6.9,0,0,0,4.05,1.26q4.95,0,10.44-6.3V573h12.6v56.88a48.46,48.46,0,0,0,.31,5.35,53.54,53.54,0,0,0,1,6h-9.69a5.25,5.25,0,0,1-1.95-1.8,11.11,11.11,0,0,1-1.23-2.43l-.45-2.07-1.53,2a23.34,23.34,0,0,1-6.35,4.32A14.23,14.23,0,0,1,448,642.43Z" transform="translate(-32.89 -56.79)"/><path class="a" d="M485.77,630a45.74,45.74,0,0,0,7.47,2.25,32.12,32.12,0,0,0,6.12.63q3.33,0,4.86-1.4a4.13,4.13,0,0,0,1.53-3.1,4.17,4.17,0,0,0-1.62-3.33,19.59,19.59,0,0,0-4.05-2.52q-2.43-1.17-5.22-2.34a29.17,29.17,0,0,1-5.22-2.84,15.3,15.3,0,0,1-4.05-4.05,10.4,10.4,0,0,1-1.62-6,13.48,13.48,0,0,1,.85-4.55,11.4,11.4,0,0,1,2.84-4.32,15.88,15.88,0,0,1,5.17-3.24,20.64,20.64,0,0,1,7.79-1.3,44.75,44.75,0,0,1,6.25.45,43.59,43.59,0,0,1,7.52,1.89l-2.88,8.1a57.54,57.54,0,0,0-5.67-1.22,30.53,30.53,0,0,0-4.41-.31,7.09,7.09,0,0,0-4.1,1,3.36,3.36,0,0,0-1.48,2.93,4.09,4.09,0,0,0,1.62,3.24,19.59,19.59,0,0,0,4,2.52q2.43,1.17,5.22,2.43a31.76,31.76,0,0,1,5.22,3A15.9,15.9,0,0,1,516,622a10.27,10.27,0,0,1,1.62,5.9,12.8,12.8,0,0,1-1.35,5.89,13.89,13.89,0,0,1-3.6,4.5,16.37,16.37,0,0,1-5.18,2.84,18.79,18.79,0,0,1-6.07,1,58.47,58.47,0,0,1-8-.63,43.82,43.82,0,0,1-10.53-3.15Z" transform="translate(-32.89 -56.79)"/><path class="a" d="M581.71,642.34a39.47,39.47,0,0,1-14.85-2.61,31.32,31.32,0,0,1-10.94-7.2,30.58,30.58,0,0,1-6.75-10.76,37.72,37.72,0,0,1-2.29-13.27,36.25,36.25,0,0,1,2.38-13.19,31.17,31.17,0,0,1,6.89-10.75,32.27,32.27,0,0,1,11-7.25,38.23,38.23,0,0,1,14.59-2.65,41.76,41.76,0,0,1,7.65.72,49.19,49.19,0,0,1,8.19,2.34L594.31,586a56.88,56.88,0,0,0-6.75-1.62,36.81,36.81,0,0,0-5.85-.45,19.59,19.59,0,0,0-9.36,2.11,19.8,19.8,0,0,0-6.57,5.54,23.81,23.81,0,0,0-3.92,7.83,32.43,32.43,0,0,0,0,18.18,24.31,24.31,0,0,0,3.92,7.87,19.12,19.12,0,0,0,6.57,5.54,20,20,0,0,0,9.36,2.07A29.28,29.28,0,0,0,594.22,630l3.33,8.19a39.35,39.35,0,0,1-8.06,3.1A31,31,0,0,1,581.71,642.34Z" transform="translate(-32.89 -56.79)"/><path class="a" d="M648,618a24.13,24.13,0,0,1-2.11,10.3,24.58,24.58,0,0,1-5.49,7.7,23.5,23.5,0,0,1-7.74,4.81,24.48,24.48,0,0,1-8.77,1.67,26,26,0,0,1-9.14-1.62,22.82,22.82,0,0,1-7.7-4.73,22.57,22.57,0,0,1-5.31-7.69,26.13,26.13,0,0,1-2-10.44,24.4,24.4,0,0,1,2.3-10.94,23.07,23.07,0,0,1,5.85-7.6,24.15,24.15,0,0,1,7.83-4.41,25.72,25.72,0,0,1,18,.36,22.23,22.23,0,0,1,12.56,12.73A26.7,26.7,0,0,1,648,618Zm-24.11,15.21a8.93,8.93,0,0,0,4.63-1.21,10.41,10.41,0,0,0,3.37-3.27,15.32,15.32,0,0,0,2-4.83,24.92,24.92,0,0,0,.67-5.9,24.34,24.34,0,0,0-.67-5.86,15.39,15.39,0,0,0-2-4.79,10.41,10.41,0,0,0-3.37-3.27,9.55,9.55,0,0,0-9.27,0,10.44,10.44,0,0,0-3.38,3.27,16.18,16.18,0,0,0-2.07,4.79,22.89,22.89,0,0,0-.72,5.86,23.21,23.21,0,0,0,.77,6.17,15.73,15.73,0,0,0,2.16,4.79,10.1,10.1,0,0,0,3.42,3.13A9.11,9.11,0,0,0,623.92,633.16Z" transform="translate(-32.89 -56.79)"/><path class="a" d="M665.4,594.73a13.05,13.05,0,0,1,2.88,4.81,17.54,17.54,0,0,1,.72,5.09v36.63H656.4V606.07A49.73,49.73,0,0,0,655,594.73Zm20.07,13.5a6.86,6.86,0,0,0-.9-3.69,3.51,3.51,0,0,0-3.24-1.44,6.36,6.36,0,0,0-1.71.22,10.77,10.77,0,0,1-2.07.32,3.23,3.23,0,0,1-2-.45,7.23,7.23,0,0,1-1.66-1.4,14,14,0,0,1-1.44-1.93c-.45-.72-.89-1.44-1.31-2.16a40.39,40.39,0,0,1,7.83-3.24,24.79,24.79,0,0,1,6.48-.9,12.5,12.5,0,0,1,4.63.9,11.63,11.63,0,0,1,4,2.7,13.44,13.44,0,0,1,2.85,4.5,17,17,0,0,1,1.09,6.39v33.21h-12.6Z" transform="translate(-32.89 -56.79)"/><path class="a" d="M709.23,630a45.74,45.74,0,0,0,7.47,2.25,32.12,32.12,0,0,0,6.12.63q3.33,0,4.86-1.4a4.13,4.13,0,0,0,1.53-3.1,4.17,4.17,0,0,0-1.62-3.33,19.59,19.59,0,0,0-4.05-2.52q-2.43-1.17-5.22-2.34a29.17,29.17,0,0,1-5.22-2.84,15.3,15.3,0,0,1-4.05-4.05,10.4,10.4,0,0,1-1.62-6,13.51,13.51,0,0,1,.86-4.55,11.37,11.37,0,0,1,2.83-4.32,15.94,15.94,0,0,1,5.18-3.24,20.59,20.59,0,0,1,7.78-1.3,44.89,44.89,0,0,1,6.26.45,43.51,43.51,0,0,1,7.51,1.89l-2.88,8.1a57.54,57.54,0,0,0-5.67-1.22,30.53,30.53,0,0,0-4.41-.31,7.05,7.05,0,0,0-4.09,1,3.37,3.37,0,0,0-1.49,2.93,4.09,4.09,0,0,0,1.62,3.24,19.59,19.59,0,0,0,4.05,2.52q2.43,1.17,5.22,2.43a31.76,31.76,0,0,1,5.22,3,15.9,15.9,0,0,1,4.05,4.09,10.27,10.27,0,0,1,1.62,5.9,12.8,12.8,0,0,1-1.35,5.89,13.89,13.89,0,0,1-3.6,4.5,16.32,16.32,0,0,1-5.17,2.84,18.85,18.85,0,0,1-6.08,1,58.47,58.47,0,0,1-8-.63,43.82,43.82,0,0,1-10.53-3.15Z" transform="translate(-32.89 -56.79)"/><path class="a" d="M761.43,627.76a6.86,6.86,0,0,0,.9,3.69,3.51,3.51,0,0,0,3.24,1.44,6.36,6.36,0,0,0,1.71-.23,10.86,10.86,0,0,1,2.07-.31,3.08,3.08,0,0,1,1.94.45,8.69,8.69,0,0,1,1.66,1.39,12.28,12.28,0,0,1,1.49,1.94c.45.72.88,1.44,1.3,2.16a40.39,40.39,0,0,1-7.83,3.24,25.22,25.22,0,0,1-6.48.9,12.61,12.61,0,0,1-4.62-.9,11.66,11.66,0,0,1-4-2.7,13.6,13.6,0,0,1-2.85-4.5,17,17,0,0,1-1.09-6.39V594.73h12.6Zm19.89,13.5a13.62,13.62,0,0,1-2.79-4.82,17.47,17.47,0,0,1-.72-5.08V594.73h12.6v35.19a49.73,49.73,0,0,0,1.44,11.34Z" transform="translate(-32.89 -56.79)"/><path class="a" d="M817.41,641.26h-12.6V573h12.6Z" transform="translate(-32.89 -56.79)"/><path class="a" d="M832.8,603.64h-7.47v-7.11l7.47-1.8V583.66l11.88-3.87v43.65a11.64,11.64,0,0,0,1.93,7.15,6.08,6.08,0,0,0,5.09,2.57,18.5,18.5,0,0,0,2.92-.27,24.75,24.75,0,0,0,4-1.08l2.61,8.19q-3.42,1.17-6,1.8a20.72,20.72,0,0,1-4.81.63q-8.64,0-13.14-4.86t-4.5-14.13Zm23.94,0a6.84,6.84,0,0,1-3.47-.86,9.89,9.89,0,0,1-2.56-2.11,12,12,0,0,1-1.8-2.84,23.21,23.21,0,0,1-1.17-3.1h13v8.91Z" transform="translate(-32.89 -56.79)"/><path class="a" d="M900.21,641.26a5.72,5.72,0,0,1-2-1.94,15.78,15.78,0,0,1-1.3-2.56l-.27-1.8-1.08,1.53a23.27,23.27,0,0,1-7.11,4.81,18.63,18.63,0,0,1-6.48,1.13,14.34,14.34,0,0,1-5.81-1.13,13.86,13.86,0,0,1-4.41-3,12.74,12.74,0,0,1-2.79-4.32,14,14,0,0,1-.94-5.13,13.07,13.07,0,0,1,1.17-5.4,12.22,12.22,0,0,1,4-4.73,25.35,25.35,0,0,1,7.61-3.6,54.58,54.58,0,0,1,11.88-2,14.66,14.66,0,0,1-1.85,5.49,6,6,0,0,1-4.27,2.88,8.14,8.14,0,0,0-4.95,2.25,5.76,5.76,0,0,0-1.53,4,5.15,5.15,0,0,0,1.66,3.91,5.64,5.64,0,0,0,4,1.58,9.31,9.31,0,0,0,5.22-1.76,24,24,0,0,0,4.95-4.54V613.27a10.61,10.61,0,0,0-2.57-7.47Q890.76,603,886,603a28,28,0,0,0-4.82.45,33,33,0,0,0-5.71,1.62l-3.06-7.92a37.87,37.87,0,0,1,8.28-2.61,39.94,39.94,0,0,1,7.38-.81q9.63,0,14.8,5T908,613.27v16.65a48.46,48.46,0,0,0,.31,5.35,43.41,43.41,0,0,0,1.13,6Z" transform="translate(-32.89 -56.79)"/><path class="a" d="M926.94,594.73a13.05,13.05,0,0,1,2.88,4.81,17.54,17.54,0,0,1,.72,5.09v36.63h-12.6V606.07a49.73,49.73,0,0,0-1.44-11.34ZM947,608.23a6.86,6.86,0,0,0-.9-3.69,3.51,3.51,0,0,0-3.24-1.44,6.36,6.36,0,0,0-1.71.22,10.77,10.77,0,0,1-2.07.32,3.23,3.23,0,0,1-2-.45,7.27,7.27,0,0,1-1.67-1.4,14,14,0,0,1-1.44-1.93c-.45-.72-.88-1.44-1.3-2.16a40.39,40.39,0,0,1,7.83-3.24,24.79,24.79,0,0,1,6.48-.9,12.41,12.41,0,0,1,4.62.9,11.66,11.66,0,0,1,4,2.7,13.76,13.76,0,0,1,2.85,4.5,17,17,0,0,1,1.09,6.39v33.21H947Z" transform="translate(-32.89 -56.79)"/><path class="a" d="M974.55,603.64h-7.47v-7.11l7.47-1.8V583.66l11.88-3.87v43.65a11.64,11.64,0,0,0,1.93,7.15,6.08,6.08,0,0,0,5.09,2.57,18.5,18.5,0,0,0,2.92-.27,24.75,24.75,0,0,0,4-1.08L1003,640q-3.42,1.17-6,1.8a20.72,20.72,0,0,1-4.81.63q-8.64,0-13.14-4.86t-4.5-14.13Zm23.94,0a6.84,6.84,0,0,1-3.47-.86,9.72,9.72,0,0,1-2.56-2.11,12,12,0,0,1-1.8-2.84,23.21,23.21,0,0,1-1.17-3.1h13v8.91Z" transform="translate(-32.89 -56.79)"/><path class="a" d="M1011.72,630a45.74,45.74,0,0,0,7.47,2.25,32,32,0,0,0,6.12.63,7.11,7.11,0,0,0,4.86-1.4,4.13,4.13,0,0,0,1.53-3.1,4.17,4.17,0,0,0-1.62-3.33,19.59,19.59,0,0,0-4-2.52q-2.43-1.17-5.22-2.34a29.17,29.17,0,0,1-5.22-2.84,15.3,15.3,0,0,1-4.05-4.05,10.4,10.4,0,0,1-1.62-6,13.48,13.48,0,0,1,.85-4.55,11.4,11.4,0,0,1,2.84-4.32,15.78,15.78,0,0,1,5.17-3.24,20.64,20.64,0,0,1,7.79-1.3,44.86,44.86,0,0,1,6.25.45,43.59,43.59,0,0,1,7.52,1.89l-2.88,8.1a57.54,57.54,0,0,0-5.67-1.22,30.53,30.53,0,0,0-4.41-.31,7.06,7.06,0,0,0-4.1,1,3.36,3.36,0,0,0-1.48,2.93,4.09,4.09,0,0,0,1.62,3.24,19.59,19.59,0,0,0,4.05,2.52q2.43,1.17,5.22,2.43a32.17,32.17,0,0,1,5.22,3,15.9,15.9,0,0,1,4,4.09,10.27,10.27,0,0,1,1.62,5.9,12.8,12.8,0,0,1-1.35,5.89,14,14,0,0,1-3.6,4.5,16.48,16.48,0,0,1-5.18,2.84,18.79,18.79,0,0,1-6.07,1,58.47,58.47,0,0,1-8-.63,43.69,43.69,0,0,1-10.53-3.15Z" transform="translate(-32.89 -56.79)"/><path class="a" d="M542.87,720.1l-.8-1.53-.8,1.62a15.36,15.36,0,0,0-2.33,4.07,15.68,15.68,0,0,0,1.54,13.37q2.38,3.35,7.25,3.35a10.78,10.78,0,0,0,1.57-.09l1.4-.18a8,8,0,0,1,5.62,1.38,29.87,29.87,0,0,1,4.1,3.7,22.6,22.6,0,0,1-6.57,3.39,25,25,0,0,1-7.47,1.07,23.67,23.67,0,0,1-8.33-1.4,18.71,18.71,0,0,1-6.43-4,17.51,17.51,0,0,1-4.19-6.25,21.75,21.75,0,0,1-1.48-8.19A18.66,18.66,0,0,1,529,719.78a32.65,32.65,0,0,1,7.47-7.87,34.25,34.25,0,0,1-2.57-3.87,24,24,0,0,1-1.48-3.15,13.15,13.15,0,0,1-.72-2.66,16.8,16.8,0,0,1-.18-2.47,16.49,16.49,0,0,1,1.52-7.29,14.54,14.54,0,0,1,4.24-5.27,18.92,18.92,0,0,1,6.45-3.19,28.73,28.73,0,0,1,8-1.08,35.09,35.09,0,0,1,6.75.75,32.83,32.83,0,0,1,7.11,2.28l-2.7,8.22a36.16,36.16,0,0,0-5.9-1.49,33.81,33.81,0,0,0-5.44-.49,10,10,0,0,0-6.26,1.84,5.84,5.84,0,0,0-2.38,4.83,11,11,0,0,0,2.2,6.5q2.21,3.06,5.9,7.49l12.06,14.25.9,1.63.63-1.89a46.52,46.52,0,0,0,2.07-5.67,42.71,42.71,0,0,0,1.26-6h10.35a104.58,104.58,0,0,1-3,11.11,47.35,47.35,0,0,1-4.5,9.77l11.43,13.23H568Z" transform="translate(-32.89 -56.79)"/><path class="a" d="M349.64,843l-4.77,14.31H332.18l23.49-65.43h12.6l23.49,65.43H378.44l-16.2-48.69-.72-3.33-.81,3.51-7.65,23.31-1.08,1.8,1.35-.18h6.84a6.32,6.32,0,0,1,3.42.9,10,10,0,0,1,2.52,2.25,14.46,14.46,0,0,1,1.85,3,26.23,26.23,0,0,1,1.21,3.11Z" transform="translate(-32.89 -56.79)"/><path class="a" d="M400,846a45.74,45.74,0,0,0,7.47,2.25,32.12,32.12,0,0,0,6.12.63q3.33,0,4.86-1.4a4.13,4.13,0,0,0,1.53-3.1,4.17,4.17,0,0,0-1.62-3.33,19.59,19.59,0,0,0-4-2.52q-2.43-1.17-5.22-2.34a29.17,29.17,0,0,1-5.22-2.84,15.3,15.3,0,0,1-4.05-4.05,10.4,10.4,0,0,1-1.62-6,13.51,13.51,0,0,1,.86-4.55,11.37,11.37,0,0,1,2.83-4.32,15.94,15.94,0,0,1,5.18-3.24,20.59,20.59,0,0,1,7.78-1.3,44.89,44.89,0,0,1,6.26.45,43.51,43.51,0,0,1,7.51,1.89l-2.88,8.1a57.54,57.54,0,0,0-5.67-1.22,30.53,30.53,0,0,0-4.41-.31,7.05,7.05,0,0,0-4.09,1,3.37,3.37,0,0,0-1.49,2.93,4.09,4.09,0,0,0,1.62,3.24,19.59,19.59,0,0,0,4.05,2.52q2.43,1.17,5.22,2.43a31.76,31.76,0,0,1,5.22,3,15.9,15.9,0,0,1,4,4.09,10.27,10.27,0,0,1,1.62,5.9,12.8,12.8,0,0,1-1.35,5.89,13.89,13.89,0,0,1-3.6,4.5,16.32,16.32,0,0,1-5.17,2.84,18.85,18.85,0,0,1-6.08,1,58.47,58.47,0,0,1-8-.63,43.82,43.82,0,0,1-10.53-3.15Z" transform="translate(-32.89 -56.79)"/><path class="a" d="M439.28,846a45.74,45.74,0,0,0,7.47,2.25,32.12,32.12,0,0,0,6.12.63q3.33,0,4.86-1.4a4.13,4.13,0,0,0,1.53-3.1,4.17,4.17,0,0,0-1.62-3.33,19.59,19.59,0,0,0-4.05-2.52q-2.43-1.17-5.22-2.34a29.17,29.17,0,0,1-5.22-2.84,15.3,15.3,0,0,1-4-4.05,10.4,10.4,0,0,1-1.62-6,13.27,13.27,0,0,1,.86-4.55,11.37,11.37,0,0,1,2.83-4.32,15.94,15.94,0,0,1,5.18-3.24,20.55,20.55,0,0,1,7.78-1.3,44.89,44.89,0,0,1,6.26.45,43.73,43.73,0,0,1,7.51,1.89l-2.88,8.1a57.54,57.54,0,0,0-5.67-1.22,30.53,30.53,0,0,0-4.41-.31,7.05,7.05,0,0,0-4.09,1,3.37,3.37,0,0,0-1.49,2.93A4.09,4.09,0,0,0,451,826a19.59,19.59,0,0,0,4,2.52q2.43,1.17,5.22,2.43a31.76,31.76,0,0,1,5.22,3,15.9,15.9,0,0,1,4,4.09,10.27,10.27,0,0,1,1.62,5.9,12.8,12.8,0,0,1-1.35,5.89,13.89,13.89,0,0,1-3.6,4.5,16.43,16.43,0,0,1-5.17,2.84,18.85,18.85,0,0,1-6.08,1,58.47,58.47,0,0,1-8-.63,43.82,43.82,0,0,1-10.53-3.15Z" transform="translate(-32.89 -56.79)"/><path class="a" d="M524.24,834a24.13,24.13,0,0,1-2.12,10.3,24.58,24.58,0,0,1-5.49,7.7,23.5,23.5,0,0,1-7.74,4.81,24.44,24.44,0,0,1-8.77,1.67,26.07,26.07,0,0,1-9.14-1.62,22.29,22.29,0,0,1-13-12.42A26.13,26.13,0,0,1,476,834,24.4,24.4,0,0,1,478.29,823a23.07,23.07,0,0,1,5.85-7.6A24.15,24.15,0,0,1,492,811a25.75,25.75,0,0,1,18,.36,22.25,22.25,0,0,1,12.55,12.73A26.7,26.7,0,0,1,524.24,834Zm-24.12,15.21a8.91,8.91,0,0,0,4.63-1.21,10.44,10.44,0,0,0,3.38-3.27,15.31,15.31,0,0,0,2-4.83,24.91,24.91,0,0,0,.68-5.9,24.33,24.33,0,0,0-.68-5.86,15.37,15.37,0,0,0-2-4.79,10.44,10.44,0,0,0-3.38-3.27,9.55,9.55,0,0,0-9.27,0,10.41,10.41,0,0,0-3.37,3.27,16.18,16.18,0,0,0-2.07,4.79,22.89,22.89,0,0,0-.72,5.86,23.22,23.22,0,0,0,.76,6.17,15.73,15.73,0,0,0,2.16,4.79,10.1,10.1,0,0,0,3.42,3.13A9.14,9.14,0,0,0,500.12,849.16Z" transform="translate(-32.89 -56.79)"/><path class="a" d="M554.48,809.56a31.48,31.48,0,0,1,5.31.49,31.85,31.85,0,0,1,5.58,1.49l-3.06,8.37a37.38,37.38,0,0,0-4.23-.81,28.33,28.33,0,0,0-3.6-.27,9.26,9.26,0,0,0-7.83,4q-3,4.05-3,11.07t3,11.16a9.26,9.26,0,0,0,7.83,4,18.2,18.2,0,0,0,4-.5,33.66,33.66,0,0,0,5-1.66l3.06,8.28a37.07,37.07,0,0,1-6.62,2.38,23.42,23.42,0,0,1-5.53.77,29.57,29.57,0,0,1-9.05-1.4,21,21,0,0,1-7.69-4.36,21.62,21.62,0,0,1-5.36-7.61,27.63,27.63,0,0,1-2-11.11,26.34,26.34,0,0,1,2-10.71,21.68,21.68,0,0,1,13-12.15A27.18,27.18,0,0,1,554.48,809.56Z" transform="translate(-32.89 -56.79)"/><path class="a" d="M571.76,797.23a7.46,7.46,0,0,1,2.11-5.36,7.4,7.4,0,0,1,10.53,0,7.47,7.47,0,0,1,2.12,5.36,7.38,7.38,0,1,1-14.76,0Zm1.08,60V810.73h12.6v46.53Z" transform="translate(-32.89 -56.79)"/><path class="a" d="M627.56,857.26a5.72,5.72,0,0,1-2-1.94,15.78,15.78,0,0,1-1.3-2.56L624,851l-1.08,1.53a23.27,23.27,0,0,1-7.11,4.81,18.63,18.63,0,0,1-6.48,1.13,14.34,14.34,0,0,1-5.81-1.13,13.86,13.86,0,0,1-4.41-3,12.74,12.74,0,0,1-2.79-4.32,14,14,0,0,1-.94-5.13,13.07,13.07,0,0,1,1.17-5.4,12.22,12.22,0,0,1,4-4.73,25.35,25.35,0,0,1,7.61-3.6,54.58,54.58,0,0,1,11.88-2,14.66,14.66,0,0,1-1.85,5.49,6,6,0,0,1-4.27,2.88,8.14,8.14,0,0,0-5,2.25,5.76,5.76,0,0,0-1.53,4,5.15,5.15,0,0,0,1.66,3.91,5.64,5.64,0,0,0,4,1.58,9.31,9.31,0,0,0,5.22-1.76,24,24,0,0,0,5-4.54V829.27a10.61,10.61,0,0,0-2.57-7.47q-2.56-2.79-7.33-2.79a28,28,0,0,0-4.82.45,33,33,0,0,0-5.71,1.62l-3.06-7.92a37.87,37.87,0,0,1,8.28-2.61,39.94,39.94,0,0,1,7.38-.81q9.63,0,14.8,5t5.18,14.54v16.65a48.46,48.46,0,0,0,.31,5.35,43.41,43.41,0,0,0,1.13,6Z" transform="translate(-32.89 -56.79)"/><path class="a" d="M649.88,819.64h-7.47v-7.11l7.47-1.8V799.66l11.88-3.87v43.65a11.64,11.64,0,0,0,1.93,7.15,6.08,6.08,0,0,0,5.09,2.57,18.5,18.5,0,0,0,2.92-.27,24.75,24.75,0,0,0,4-1.08l2.61,8.19q-3.42,1.17-6,1.8a20.72,20.72,0,0,1-4.81.63q-8.64,0-13.14-4.86t-4.5-14.13Zm23.94,0a6.84,6.84,0,0,1-3.47-.86,9.72,9.72,0,0,1-2.56-2.11,12,12,0,0,1-1.8-2.84,23.21,23.21,0,0,1-1.17-3.1h13v8.91Z" transform="translate(-32.89 -56.79)"/><path class="a" d="M716.39,828.73a11.11,11.11,0,0,0-.18-4,9.53,9.53,0,0,0-1.49-3.33,7.7,7.7,0,0,0-2.61-2.3,7.53,7.53,0,0,0-3.64-.85,9.24,9.24,0,0,0-3.74.81,9.6,9.6,0,0,0-3.37,2.56,13.24,13.24,0,0,0-2.48,4.5,20.47,20.47,0,0,0-.94,6.62q0,7.83,3.51,12.1a11.31,11.31,0,0,0,9.18,4.28,24.93,24.93,0,0,0,6.16-.77,42.88,42.88,0,0,0,7-2.56l3.15,8.37a42.29,42.29,0,0,1-9.14,3.28,39.34,39.34,0,0,1-8.5.95,23.57,23.57,0,0,1-10.67-2.25,22.61,22.61,0,0,1-7.38-5.81,23.47,23.47,0,0,1-4.32-8,30.53,30.53,0,0,1-1.39-9.09,25.67,25.67,0,0,1,1.84-10,21.44,21.44,0,0,1,5-7.43,22.15,22.15,0,0,1,7.52-4.63,25.93,25.93,0,0,1,9.18-1.62,20.86,20.86,0,0,1,9.09,2,17.19,17.19,0,0,1,6.66,5.49,17.85,17.85,0,0,1,3.1,8.41,24,24,0,0,1-1.39,10.67h-25.2a14.38,14.38,0,0,1,2.83-5.27,5.45,5.45,0,0,1,4.19-2.11Z" transform="translate(-32.89 -56.79)"/><path class="a" d="M737.8,846a46,46,0,0,0,7.47,2.25,32.12,32.12,0,0,0,6.12.63q3.33,0,4.86-1.4a4.06,4.06,0,0,0-.08-6.43,20.14,20.14,0,0,0-4-2.52c-1.62-.78-3.37-1.56-5.23-2.34a29.17,29.17,0,0,1-5.22-2.84,15.44,15.44,0,0,1-4-4.05,10.4,10.4,0,0,1-1.62-6,13.51,13.51,0,0,1,.86-4.55,11.28,11.28,0,0,1,2.84-4.32,15.78,15.78,0,0,1,5.17-3.24,20.61,20.61,0,0,1,7.79-1.3,44.86,44.86,0,0,1,6.25.45,43.51,43.51,0,0,1,7.51,1.89l-2.88,8.1a57.45,57.45,0,0,0-5.66-1.22,30.77,30.77,0,0,0-4.42-.31,7.05,7.05,0,0,0-4.09,1,3.37,3.37,0,0,0-1.49,2.93A4.09,4.09,0,0,0,749.5,826a19.59,19.59,0,0,0,4,2.52q2.43,1.17,5.22,2.43a31.85,31.85,0,0,1,5.23,3,15.86,15.86,0,0,1,4,4.09,10.27,10.27,0,0,1,1.63,5.9,12.8,12.8,0,0,1-1.36,5.89,13.76,13.76,0,0,1-3.6,4.5,16.32,16.32,0,0,1-5.17,2.84,18.85,18.85,0,0,1-6.08,1,58.22,58.22,0,0,1-8-.63,43.75,43.75,0,0,1-10.54-3.15Z" transform="translate(-32.89 -56.79)"/></svg>