<svg xmlns="http://www.w3.org/2000/svg" viewBox="0 0 323.39 326.96"><defs><style>.a{fill:#4dc2ed;}</style></defs><path class="a" d="M324.63,435.82v-6.18H356v6.18h-11.4v37.44H336V435.82Z" transform="translate(-324.63 -219.07)"/><path class="a" d="M377.25,473.26h-8.76l-10.92-31h8.82l6.24,22,.42,1.8.42-1.8,4.44-11.76a20.25,20.25,0,0,1,1.35,3.18,23.76,23.76,0,0,1,1,4,19.45,19.45,0,0,1,.18,4.32,13.25,13.25,0,0,1-.93,4.11Zm11.16,0-11-31h8.88l6.24,22L393,466l.42-1.8,6.18-22h8.7l-10.92,31Z" transform="translate(-324.63 -219.07)"/><path class="a" d="M412.17,433.24a5,5,0,0,1,1.41-3.57,4.93,4.93,0,0,1,7,0,5,5,0,0,1,1.41,3.57,4.92,4.92,0,1,1-9.84,0Zm.72,40v-31h8.4v31Z" transform="translate(-324.63 -219.07)"/><path class="a" d="M434.67,442.24a8.71,8.71,0,0,1,1.92,3.21,11.67,11.67,0,0,1,.48,3.39v24.42h-8.4V449.8a33.16,33.16,0,0,0-1-7.56Zm13.38,9a4.57,4.57,0,0,0-.6-2.46,2.34,2.34,0,0,0-2.16-1,4.24,4.24,0,0,0-1.14.15,7.21,7.21,0,0,1-1.38.21,2.16,2.16,0,0,1-1.32-.3,4.82,4.82,0,0,1-1.11-.93,9.4,9.4,0,0,1-1-1.29q-.45-.72-.87-1.44a26.92,26.92,0,0,1,5.22-2.16,16.52,16.52,0,0,1,4.32-.6,8.24,8.24,0,0,1,3.08.6,7.67,7.67,0,0,1,2.69,1.8,9.09,9.09,0,0,1,1.91,3,11.44,11.44,0,0,1,.72,4.26v22.14h-8.4Z" transform="translate(-324.63 -219.07)"/><path class="a" d="M481.05,473.26h-8.76l-10.92-31h8.82l6.24,22,.42,1.8.42-1.8,4.44-11.76a20.25,20.25,0,0,1,1.35,3.18,23.76,23.76,0,0,1,1,4,19.45,19.45,0,0,1,.18,4.32,13.25,13.25,0,0,1-.93,4.11Zm11.16,0-11-31h8.88l6.24,22,.42,1.8.42-1.8,6.18-22h8.7l-10.92,31Z" transform="translate(-324.63 -219.07)"/><path class="a" d="M546.69,457.72a16.1,16.1,0,0,1-1.41,6.87,16.37,16.37,0,0,1-3.66,5.13,15.68,15.68,0,0,1-5.16,3.21,16.31,16.31,0,0,1-5.85,1.11,17.36,17.36,0,0,1-6.09-1.08,14.83,14.83,0,0,1-8.67-8.28,17.42,17.42,0,0,1-1.32-7,16.25,16.25,0,0,1,1.53-7.29,15.39,15.39,0,0,1,3.9-5.07,16.1,16.1,0,0,1,5.22-2.94,17.15,17.15,0,0,1,12,.24,14.82,14.82,0,0,1,8.37,8.49A17.78,17.78,0,0,1,546.69,457.72Zm-16.08,10.14a5.89,5.89,0,0,0,3.09-.81,6.88,6.88,0,0,0,2.25-2.18,10.11,10.11,0,0,0,1.35-3.22,16.54,16.54,0,0,0,.45-3.93,16.19,16.19,0,0,0-.45-3.91,10.23,10.23,0,0,0-1.35-3.19,6.88,6.88,0,0,0-2.25-2.18,6.37,6.37,0,0,0-6.18,0,6.88,6.88,0,0,0-2.25,2.18,10.76,10.76,0,0,0-1.38,3.19,15.23,15.23,0,0,0-.48,3.91,15.42,15.42,0,0,0,.51,4.11,10.39,10.39,0,0,0,1.44,3.19,6.68,6.68,0,0,0,2.28,2.09A6,6,0,0,0,530.61,467.86Z" transform="translate(-324.63 -219.07)"/><path class="a" d="M583.29,457.72a16.1,16.1,0,0,1-1.41,6.87,16.37,16.37,0,0,1-3.66,5.13,15.68,15.68,0,0,1-5.16,3.21,16.31,16.31,0,0,1-5.85,1.11,17.36,17.36,0,0,1-6.09-1.08,14.83,14.83,0,0,1-8.67-8.28,17.42,17.42,0,0,1-1.32-7,16.25,16.25,0,0,1,1.53-7.29,15.39,15.39,0,0,1,3.9-5.07,16.1,16.1,0,0,1,5.22-2.94,17.15,17.15,0,0,1,12,.24,14.82,14.82,0,0,1,8.37,8.49A17.78,17.78,0,0,1,583.29,457.72Zm-16.08,10.14a5.89,5.89,0,0,0,3.09-.81,6.88,6.88,0,0,0,2.25-2.18,10.11,10.11,0,0,0,1.35-3.22,16.54,16.54,0,0,0,.45-3.93,16.19,16.19,0,0,0-.45-3.91,10.23,10.23,0,0,0-1.35-3.19,6.88,6.88,0,0,0-2.25-2.18,6.37,6.37,0,0,0-6.18,0,6.88,6.88,0,0,0-2.25,2.18,10.76,10.76,0,0,0-1.38,3.19,15.23,15.23,0,0,0-.48,3.91,15.42,15.42,0,0,0,.51,4.11A10.39,10.39,0,0,0,562,465a6.68,6.68,0,0,0,2.28,2.09A6,6,0,0,0,567.21,467.86Z" transform="translate(-324.63 -219.07)"/><path class="a" d="M601.35,474a13.5,13.5,0,0,1-5.82-1.23,11.94,11.94,0,0,1-4.32-3.45,16,16,0,0,1-2.67-5.25,22.29,22.29,0,0,1-.93-6.57,17.12,17.12,0,0,1,1.08-6.06,16.89,16.89,0,0,1,2.91-5,14.53,14.53,0,0,1,4.23-3.45,10.39,10.39,0,0,1,5-1.29,21.41,21.41,0,0,1,3,.21,30.74,30.74,0,0,1,3.81.87,12.49,12.49,0,0,1-1.92,3.39,3.67,3.67,0,0,1-2.58,1.41,6.66,6.66,0,0,0-3.12.9,6.12,6.12,0,0,0-2,2.07,9.55,9.55,0,0,0-1.14,3.09,19.89,19.89,0,0,0-.36,3.9,17.94,17.94,0,0,0,.42,4,11.71,11.71,0,0,0,1.23,3.27,6.87,6.87,0,0,0,2,2.25,4.6,4.6,0,0,0,2.7.84q3.3,0,7-4.2V427.78h8.4V465.7a32.4,32.4,0,0,0,.21,3.57,35.6,35.6,0,0,0,.69,4h-6.46a3.48,3.48,0,0,1-1.3-1.2,7.71,7.71,0,0,1-.82-1.62l-.3-1.38-1,1.32a15.55,15.55,0,0,1-4.23,2.88A9.69,9.69,0,0,1,601.35,474Z" transform="translate(-324.63 -219.07)"/><path class="a" d="M626.55,465.76a30.49,30.49,0,0,0,5,1.5,21.42,21.42,0,0,0,4.08.42,4.71,4.71,0,0,0,3.24-.93,2.72,2.72,0,0,0-.06-4.29,13.06,13.06,0,0,0-2.7-1.68q-1.62-.78-3.48-1.56a19.43,19.43,0,0,1-3.48-1.89,10.2,10.2,0,0,1-2.7-2.7,7,7,0,0,1-1.08-4,9,9,0,0,1,.57-3,7.59,7.59,0,0,1,1.89-2.88,10.61,10.61,0,0,1,3.45-2.16,13.74,13.74,0,0,1,5.19-.87,29.88,29.88,0,0,1,4.17.3,29,29,0,0,1,5,1.26l-1.92,5.4a38.19,38.19,0,0,0-3.78-.81,20.35,20.35,0,0,0-2.94-.21,4.71,4.71,0,0,0-2.73.69,2.24,2.24,0,0,0-1,1.95,2.73,2.73,0,0,0,1.08,2.16,13.06,13.06,0,0,0,2.7,1.68q1.62.78,3.48,1.62a21.17,21.17,0,0,1,3.48,2,10.61,10.61,0,0,1,2.7,2.73,6.83,6.83,0,0,1,1.08,3.93,8.54,8.54,0,0,1-.9,3.93,9.26,9.26,0,0,1-2.4,3A10.89,10.89,0,0,1,641,473.2a12.55,12.55,0,0,1-4,.66,40.63,40.63,0,0,1-5.34-.42,29.22,29.22,0,0,1-7-2.1Z" transform="translate(-324.63 -219.07)"/><path class="a" d="M342.09,513.46a21.81,21.81,0,0,1,7.26,1.31l-2,5.58a27.35,27.35,0,0,0-2.82-.54,18.89,18.89,0,0,0-2.4-.18,6.17,6.17,0,0,0-5.22,2.7,12.24,12.24,0,0,0-2,7.38,12.39,12.39,0,0,0,2,7.45,6.16,6.16,0,0,0,5.22,2.69,11.56,11.56,0,0,0,2.7-.33,21.24,21.24,0,0,0,3.36-1.1l2,5.51a23.24,23.24,0,0,1-4.41,1.59,15.68,15.68,0,0,1-3.69.52,19.7,19.7,0,0,1-6-.94,14,14,0,0,1-5.13-2.9,14.34,14.34,0,0,1-3.57-5.08,18.4,18.4,0,0,1-1.35-7.41,17.59,17.59,0,0,1,1.35-7.14,14.86,14.86,0,0,1,3.57-5.07,15,15,0,0,1,5.13-3A18.1,18.1,0,0,1,342.09,513.46Z" transform="translate(-324.63 -219.07)"/><path class="a" d="M384.33,529.71a16.07,16.07,0,0,1-5.07,12,15.35,15.35,0,0,1-5.16,3.21,16.11,16.11,0,0,1-5.85,1.12,17.59,17.59,0,0,1-6.09-1.08A15.22,15.22,0,0,1,357,541.8a15.06,15.06,0,0,1-3.54-5.13,17.38,17.38,0,0,1-1.32-7,16.31,16.31,0,0,1,1.53-7.29,15.5,15.5,0,0,1,3.9-5.07,16.07,16.07,0,0,1,5.22-2.93,17.22,17.22,0,0,1,12,.23,14.8,14.8,0,0,1,8.37,8.5A17.69,17.69,0,0,1,384.33,529.71Zm-16.08,10.14a5.88,5.88,0,0,0,3.09-.8,6.88,6.88,0,0,0,2.25-2.18,10.21,10.21,0,0,0,1.35-3.22,16.57,16.57,0,0,0,.45-3.94,16.17,16.17,0,0,0-.45-3.9,10.23,10.23,0,0,0-1.35-3.19,6.88,6.88,0,0,0-2.25-2.18,6.3,6.3,0,0,0-6.18,0,6.88,6.88,0,0,0-2.25,2.18,10.76,10.76,0,0,0-1.38,3.19,15.21,15.21,0,0,0-.48,3.9,15.44,15.44,0,0,0,.51,4.12A10.39,10.39,0,0,0,363,537a6.68,6.68,0,0,0,2.28,2.09A6,6,0,0,0,368.25,539.85Z" transform="translate(-324.63 -219.07)"/><path class="a" d="M395.91,514.23a8.79,8.79,0,0,1,1.92,3.21,11.72,11.72,0,0,1,.48,3.39v24.42h-8.4V521.79a33.29,33.29,0,0,0-1-7.56Zm13.38,9a4.62,4.62,0,0,0-.6-2.46,2.36,2.36,0,0,0-2.16-1,4.68,4.68,0,0,0-1.14.15,5.91,5.91,0,0,1-1.38.21,2.15,2.15,0,0,1-1.32-.29,4.87,4.87,0,0,1-1.11-.94,8.83,8.83,0,0,1-1-1.29q-.45-.72-.87-1.44a28.25,28.25,0,0,1,5.22-2.16,16.93,16.93,0,0,1,4.32-.59,8.43,8.43,0,0,1,3.08.59,8,8,0,0,1,2.69,1.8,9.19,9.19,0,0,1,1.91,3,11.48,11.48,0,0,1,.72,4.26v22.14h-8.4Z" transform="translate(-324.63 -219.07)"/><path class="a" d="M425.13,537.75a29.53,29.53,0,0,0,5,1.5,20.64,20.64,0,0,0,4.08.42,4.72,4.72,0,0,0,3.24-.92,2.72,2.72,0,0,0-.06-4.29,12.66,12.66,0,0,0-2.7-1.69q-1.62-.76-3.48-1.56a18.78,18.78,0,0,1-3.48-1.88,10.23,10.23,0,0,1-2.7-2.71,6.9,6.9,0,0,1-1.08-4,9,9,0,0,1,.57-3,7.63,7.63,0,0,1,1.89-2.87,10.79,10.79,0,0,1,3.45-2.17,13.94,13.94,0,0,1,5.19-.87,27.47,27.47,0,0,1,9.18,1.56l-1.92,5.4q-2.34-.58-3.78-.81a21.88,21.88,0,0,0-2.94-.21,4.79,4.79,0,0,0-2.73.69,2.26,2.26,0,0,0-1,1.95,2.76,2.76,0,0,0,1.08,2.17,13,13,0,0,0,2.7,1.67c1.08.52,2.24,1.06,3.48,1.63a21.88,21.88,0,0,1,3.48,2,10.81,10.81,0,0,1,2.7,2.74,6.79,6.79,0,0,1,1.08,3.93,8.5,8.5,0,0,1-.9,3.92,9.05,9.05,0,0,1-2.4,3,11.11,11.11,0,0,1-3.45,1.9,12.82,12.82,0,0,1-4.05.65,39,39,0,0,1-5.34-.42,28.33,28.33,0,0,1-7-2.1Z" transform="translate(-324.63 -219.07)"/><path class="a" d="M459.93,536.25a4.55,4.55,0,0,0,.6,2.46,2.32,2.32,0,0,0,2.16,1,4.24,4.24,0,0,0,1.14-.15,9.24,9.24,0,0,1,1.38-.21,2.11,2.11,0,0,1,1.29.31,5.76,5.76,0,0,1,1.11.92,8.63,8.63,0,0,1,1,1.29q.45.72.87,1.44a25.71,25.71,0,0,1-5.22,2.16,16.55,16.55,0,0,1-4.32.61,8.25,8.25,0,0,1-3.08-.61,7.41,7.41,0,0,1-2.69-1.8,9.09,9.09,0,0,1-1.91-3,11.39,11.39,0,0,1-.72-4.25V514.23h8.4Zm13.26,9a9,9,0,0,1-1.86-3.21,11.6,11.6,0,0,1-.48-3.38V514.23h8.4V537.7a33,33,0,0,0,1,7.55Z" transform="translate(-324.63 -219.07)"/><path class="a" d="M497.25,545.25h-8.4V499.77h8.4Z" transform="translate(-324.63 -219.07)"/><path class="a" d="M507.51,520.17h-5v-4.73l5-1.21v-7.38l7.92-2.58v29.11a7.74,7.74,0,0,0,1.29,4.76,4,4,0,0,0,3.39,1.71,12.37,12.37,0,0,0,1.95-.18,17.4,17.4,0,0,0,2.67-.71l1.74,5.46c-1.52.52-2.85.91-4,1.2a14,14,0,0,1-3.21.42q-5.76,0-8.76-3.25t-3-9.41Zm16,0a4.45,4.45,0,0,1-2.31-.57,6.14,6.14,0,0,1-1.71-1.41,7.6,7.6,0,0,1-1.2-1.89,14.54,14.54,0,0,1-.78-2.07h8.7v5.94Z" transform="translate(-324.63 -219.07)"/><path class="a" d="M552.45,545.25A3.71,3.71,0,0,1,551.1,544a10.57,10.57,0,0,1-.87-1.71l-.18-1.2-.72,1a15.53,15.53,0,0,1-4.74,3.21,12.66,12.66,0,0,1-4.32.75,9.71,9.71,0,0,1-3.87-.75,9.12,9.12,0,0,1-2.94-2,8.49,8.49,0,0,1-1.86-2.88A9.35,9.35,0,0,1,531,537a8.7,8.7,0,0,1,.78-3.59,8.17,8.17,0,0,1,2.67-3.16,17.12,17.12,0,0,1,5.07-2.39,36.31,36.31,0,0,1,7.92-1.36,9.71,9.71,0,0,1-1.23,3.66,4,4,0,0,1-2.85,1.92,5.48,5.48,0,0,0-3.3,1.5,3.88,3.88,0,0,0-1,2.65,3.41,3.41,0,0,0,1.11,2.6,3.75,3.75,0,0,0,2.67,1.05,6.2,6.2,0,0,0,3.48-1.17,15.65,15.65,0,0,0,3.3-3v-9.07a7.09,7.09,0,0,0-1.71-5,6.35,6.35,0,0,0-4.89-1.86,18.63,18.63,0,0,0-3.21.3,24,24,0,0,0-3.81,1.08l-2-5.28a27.43,27.43,0,0,1,10.44-2.28c4.28,0,7.57,1.12,9.87,3.33s3.45,5.46,3.45,9.69V537.7a32.23,32.23,0,0,0,.21,3.56,28.59,28.59,0,0,0,.75,4Z" transform="translate(-324.63 -219.07)"/><path class="a" d="M570.27,514.23a8.79,8.79,0,0,1,1.92,3.21,11.72,11.72,0,0,1,.48,3.39v24.42h-8.4V521.79a33.29,33.29,0,0,0-1-7.56Zm13.38,9a4.62,4.62,0,0,0-.6-2.46,2.36,2.36,0,0,0-2.16-1,4.68,4.68,0,0,0-1.14.15,5.91,5.91,0,0,1-1.38.21,2.15,2.15,0,0,1-1.32-.29,4.87,4.87,0,0,1-1.11-.94,8.83,8.83,0,0,1-1-1.29q-.45-.72-.87-1.44a28.25,28.25,0,0,1,5.22-2.16,16.93,16.93,0,0,1,4.32-.59,8.47,8.47,0,0,1,3.08.59,8.05,8.05,0,0,1,2.69,1.8,9,9,0,0,1,1.9,3,11.27,11.27,0,0,1,.73,4.26v22.14h-8.4Z" transform="translate(-324.63 -219.07)"/><path class="a" d="M602,520.17h-5v-4.73l5-1.21v-7.38l7.92-2.58v29.11a7.74,7.74,0,0,0,1.29,4.76,4,4,0,0,0,3.39,1.71,12.37,12.37,0,0,0,1.95-.18,17.4,17.4,0,0,0,2.67-.71l1.74,5.46c-1.52.52-2.85.91-4,1.2a14,14,0,0,1-3.21.42q-5.76,0-8.76-3.25t-3-9.41Zm16,0a4.45,4.45,0,0,1-2.31-.57,6.14,6.14,0,0,1-1.71-1.41,7.6,7.6,0,0,1-1.2-1.89,14.54,14.54,0,0,1-.78-2.07h8.7v5.94Z" transform="translate(-324.63 -219.07)"/><path class="a" d="M626.79,537.75a29.53,29.53,0,0,0,5,1.5,20.64,20.64,0,0,0,4.08.42,4.72,4.72,0,0,0,3.24-.92,2.72,2.72,0,0,0-.06-4.29,12.66,12.66,0,0,0-2.7-1.69q-1.62-.76-3.48-1.56a18.78,18.78,0,0,1-3.48-1.88,10.23,10.23,0,0,1-2.7-2.71,6.9,6.9,0,0,1-1.08-4,9,9,0,0,1,.57-3,7.63,7.63,0,0,1,1.89-2.87,10.79,10.79,0,0,1,3.45-2.17,13.94,13.94,0,0,1,5.19-.87,27.47,27.47,0,0,1,9.18,1.56l-1.92,5.4q-2.34-.58-3.78-.81a21.88,21.88,0,0,0-2.94-.21,4.79,4.79,0,0,0-2.73.69,2.26,2.26,0,0,0-1,1.95,2.76,2.76,0,0,0,1.08,2.17,13,13,0,0,0,2.7,1.67c1.08.52,2.24,1.06,3.48,1.63a21.88,21.88,0,0,1,3.48,2,10.81,10.81,0,0,1,2.7,2.74,6.79,6.79,0,0,1,1.08,3.93,8.5,8.5,0,0,1-.9,3.92,9.05,9.05,0,0,1-2.4,3,11.11,11.11,0,0,1-3.45,1.9,12.82,12.82,0,0,1-4,.65,39,39,0,0,1-5.34-.42,28.33,28.33,0,0,1-7-2.1Z" transform="translate(-324.63 -219.07)"/><path class="a" d="M342.41,219.07H511.16v36.56h-66.1V387.82H408.5V255.63H342.41Z" transform="translate(-324.63 -219.07)"/><path class="a" d="M618.21,296.61h-132v95.62h132V428.8H484.62a34.42,34.42,0,0,1-34.69-34.69V294.74a34.42,34.42,0,0,1,34.69-34.69H618.21Z" transform="translate(-324.63 -219.07)"/></svg>