<svg xmlns="http://www.w3.org/2000/svg" viewBox="0 0 647.49 880.34"><defs><style>.a{fill:#00a1c0;}.b{fill:#fff;}</style></defs><path class="a" d="M212.83,106.62H766.36s94,24.51,94,98v478c0,68.17-32.68,304.34-292.09,304.34H308.83s-96-7.66-96-112.34Z" transform="translate(-212.83 -106.62)"/><path class="b" d="M251.64,289.43H368.06V149.51s14.3-2.38,27.58,0,43.91,30.3,43.91,51.06v88.86s95.66-4.09,170.56,0,85.44,66.38,86.8,79.66S702,717.34,702,756.15s-18,92.94-111.32,95-137.53,0-150.13,0-71.29-10.56-71.48-85.79l-1-404.43a668.84,668.84,0,0,1-75.57,2C251.51,361.68,249.68,327.62,251.64,289.43Z" transform="translate(-212.83 -106.62)"/><path class="a" d="M442.11,358.62H595.3s26,6.12,28.34,30.64a218.25,218.25,0,0,1,0,42.89S515.89,486,508.74,491.89,466.11,526.62,459,583.81s-1.53,167-1.53,167l-15.32-10Z" transform="translate(-212.83 -106.62)"/><path class="a" d="M624.66,492s2.81,213.45,2.81,244.42-49,33.54-49,33.54-46.22-3.41-45.07-40.6,0-106.47,0-143.23-2.46-43.45,30.51-61.28Z" transform="translate(-212.83 -106.62)"/></svg>