<svg xmlns="http://www.w3.org/2000/svg" viewBox="0 0 359.04 722.04"><defs><style>.a{fill:#1d1d1b;}.b{fill:none;stroke:#1d1d1b;stroke-miterlimit:10;stroke-width:18px;}</style></defs><path class="a" d="M611.13,905.77,531.72,835.3,452.3,905.77l9.46-368.27a30.59,30.59,0,0,1,30.75-29.81l70.06.38A28.62,28.62,0,0,1,591,535.47Z" transform="translate(-337.25 -183.72)"/><polygon class="b" points="319.73 194.54 338.76 232.6 298.21 252.88 298.21 298.21 262.4 298.21 250.07 331.82 218.64 320.3 197.68 346.39 164.5 319.73 126.44 338.76 106.17 298.21 60.83 298.21 60.83 262.4 27.21 250.07 38.74 218.65 12.65 197.68 39.31 164.51 20.28 126.44 60.83 106.17 60.83 60.83 96.63 60.83 108.96 27.22 140.39 38.75 161.36 12.65 194.53 39.31 232.6 20.28 252.88 60.83 298.21 60.83 298.21 96.64 331.82 108.97 320.29 140.39 346.39 161.37 319.73 194.54"/></svg>